%
M48
M72
T01C0.03150
T02C0.03200
T03C0.03543
T04C0.03937
T05C0.04000
T06C0.04400
T07C0.12598
T08C0.13000
%
T01
X30737Y140737
X30737Y130737
X30737Y120737
X30737Y110737
X30737Y100737
X30737Y90737
X30737Y80737
X30737Y70737
X30737Y60737
X30737Y50737
X30737Y40737
X30737Y30737
X80737Y30737
X80737Y40737
X80737Y50737
X80737Y60737
X80737Y70737
X101800Y61800
X111800Y61800
X121800Y61800
X131800Y61800
X141800Y61800
X151800Y61800
X161800Y61800
X171800Y61800
X191800Y61800
X201800Y61800
X211800Y61800
X221800Y61800
X231800Y61800
X241800Y61800
X251800Y61800
X261800Y61800
X261800Y111800
X251800Y111800
X241800Y111800
X231800Y111800
X221800Y111800
X211800Y111800
X201800Y111800
X191800Y111800
X171800Y111800
X161800Y111800
X151800Y111800
X141800Y111800
X131800Y111800
X121800Y111800
X111800Y111800
X101800Y111800
X80737Y110737
X80737Y100737
X80737Y90737
X80737Y80737
X80737Y120737
X80737Y130737
X80737Y140737
X110800Y37800
X100800Y27800
X120800Y27800
T02
X40800Y110800
X49800Y100800
X40800Y80800
X49800Y70800
X136800Y80800
X166800Y80800
X206800Y80800
X236800Y80800
X278800Y57800
X296800Y50800
X278800Y47800
X256800Y42800
X226800Y42800
X215800Y42800
X185800Y42800
X174800Y42800
X144800Y42800
X96800Y136800
X116800Y136800
X186800Y136800
X206800Y136800
X281800Y141800
X281800Y121800
X296800Y20800
T03
X306646Y46414
X327367Y46367
X327383Y25666
X306662Y25713
T04
X316800Y125107
X316800Y138887
T05
X68800Y30800
X42800Y50800
X42800Y60800
X62737Y60737
X62737Y70737
X62737Y80737
X62737Y90737
X68800Y130800
X42800Y130800
X136800Y136800
X146800Y136800
X156800Y136800
X166800Y136800
X226800Y136800
X236800Y136800
X246800Y136800
X256800Y136800
X286800Y26800
X276800Y26800
X266800Y26800
X256800Y26800
X246800Y26800
X236800Y26800
X226800Y26800
X216800Y26800
X206800Y26800
X196800Y26800
X186800Y26800
X176800Y26800
X166800Y26800
X156800Y26800
X146800Y26800
X136800Y26800
T06
X271800Y76800
X271800Y86800
X271800Y96800
T07
X13611Y147469
X13611Y13611
X344320Y147469
X344320Y13611
T08
X330800Y86800
M30
