G75*
%MOIN*%
%OFA0B0*%
%FSLAX25Y25*%
%IPPOS*%
%LPD*%
%AMOC8*
5,1,8,0,0,1.08239X$1,22.5*
%
%ADD10C,0.00000*%
%ADD11OC8,0.05200*%
%ADD12OC8,0.06600*%
%ADD13C,0.07000*%
%ADD14C,0.06600*%
%ADD15C,0.08600*%
%ADD16C,0.06000*%
%ADD17C,0.07600*%
%ADD18R,0.08600X0.08600*%
%ADD19C,0.05543*%
%ADD20C,0.05150*%
%ADD21OC8,0.07600*%
%ADD22C,0.03200*%
%ADD23C,0.01600*%
%ADD24C,0.01000*%
D10*
X0001800Y0001800D02*
X0001800Y0159280D01*
X0356131Y0159280D01*
X0356131Y0001800D01*
X0001800Y0001800D01*
X0007312Y0013611D02*
X0007314Y0013769D01*
X0007320Y0013927D01*
X0007330Y0014085D01*
X0007344Y0014243D01*
X0007362Y0014400D01*
X0007383Y0014557D01*
X0007409Y0014713D01*
X0007439Y0014869D01*
X0007472Y0015024D01*
X0007510Y0015177D01*
X0007551Y0015330D01*
X0007596Y0015482D01*
X0007645Y0015633D01*
X0007698Y0015782D01*
X0007754Y0015930D01*
X0007814Y0016076D01*
X0007878Y0016221D01*
X0007946Y0016364D01*
X0008017Y0016506D01*
X0008091Y0016646D01*
X0008169Y0016783D01*
X0008251Y0016919D01*
X0008335Y0017053D01*
X0008424Y0017184D01*
X0008515Y0017313D01*
X0008610Y0017440D01*
X0008707Y0017565D01*
X0008808Y0017687D01*
X0008912Y0017806D01*
X0009019Y0017923D01*
X0009129Y0018037D01*
X0009242Y0018148D01*
X0009357Y0018257D01*
X0009475Y0018362D01*
X0009596Y0018464D01*
X0009719Y0018564D01*
X0009845Y0018660D01*
X0009973Y0018753D01*
X0010103Y0018843D01*
X0010236Y0018929D01*
X0010371Y0019013D01*
X0010507Y0019092D01*
X0010646Y0019169D01*
X0010787Y0019241D01*
X0010929Y0019311D01*
X0011073Y0019376D01*
X0011219Y0019438D01*
X0011366Y0019496D01*
X0011515Y0019551D01*
X0011665Y0019602D01*
X0011816Y0019649D01*
X0011968Y0019692D01*
X0012121Y0019731D01*
X0012276Y0019767D01*
X0012431Y0019798D01*
X0012587Y0019826D01*
X0012743Y0019850D01*
X0012900Y0019870D01*
X0013058Y0019886D01*
X0013215Y0019898D01*
X0013374Y0019906D01*
X0013532Y0019910D01*
X0013690Y0019910D01*
X0013848Y0019906D01*
X0014007Y0019898D01*
X0014164Y0019886D01*
X0014322Y0019870D01*
X0014479Y0019850D01*
X0014635Y0019826D01*
X0014791Y0019798D01*
X0014946Y0019767D01*
X0015101Y0019731D01*
X0015254Y0019692D01*
X0015406Y0019649D01*
X0015557Y0019602D01*
X0015707Y0019551D01*
X0015856Y0019496D01*
X0016003Y0019438D01*
X0016149Y0019376D01*
X0016293Y0019311D01*
X0016435Y0019241D01*
X0016576Y0019169D01*
X0016715Y0019092D01*
X0016851Y0019013D01*
X0016986Y0018929D01*
X0017119Y0018843D01*
X0017249Y0018753D01*
X0017377Y0018660D01*
X0017503Y0018564D01*
X0017626Y0018464D01*
X0017747Y0018362D01*
X0017865Y0018257D01*
X0017980Y0018148D01*
X0018093Y0018037D01*
X0018203Y0017923D01*
X0018310Y0017806D01*
X0018414Y0017687D01*
X0018515Y0017565D01*
X0018612Y0017440D01*
X0018707Y0017313D01*
X0018798Y0017184D01*
X0018887Y0017053D01*
X0018971Y0016919D01*
X0019053Y0016783D01*
X0019131Y0016646D01*
X0019205Y0016506D01*
X0019276Y0016364D01*
X0019344Y0016221D01*
X0019408Y0016076D01*
X0019468Y0015930D01*
X0019524Y0015782D01*
X0019577Y0015633D01*
X0019626Y0015482D01*
X0019671Y0015330D01*
X0019712Y0015177D01*
X0019750Y0015024D01*
X0019783Y0014869D01*
X0019813Y0014713D01*
X0019839Y0014557D01*
X0019860Y0014400D01*
X0019878Y0014243D01*
X0019892Y0014085D01*
X0019902Y0013927D01*
X0019908Y0013769D01*
X0019910Y0013611D01*
X0019908Y0013453D01*
X0019902Y0013295D01*
X0019892Y0013137D01*
X0019878Y0012979D01*
X0019860Y0012822D01*
X0019839Y0012665D01*
X0019813Y0012509D01*
X0019783Y0012353D01*
X0019750Y0012198D01*
X0019712Y0012045D01*
X0019671Y0011892D01*
X0019626Y0011740D01*
X0019577Y0011589D01*
X0019524Y0011440D01*
X0019468Y0011292D01*
X0019408Y0011146D01*
X0019344Y0011001D01*
X0019276Y0010858D01*
X0019205Y0010716D01*
X0019131Y0010576D01*
X0019053Y0010439D01*
X0018971Y0010303D01*
X0018887Y0010169D01*
X0018798Y0010038D01*
X0018707Y0009909D01*
X0018612Y0009782D01*
X0018515Y0009657D01*
X0018414Y0009535D01*
X0018310Y0009416D01*
X0018203Y0009299D01*
X0018093Y0009185D01*
X0017980Y0009074D01*
X0017865Y0008965D01*
X0017747Y0008860D01*
X0017626Y0008758D01*
X0017503Y0008658D01*
X0017377Y0008562D01*
X0017249Y0008469D01*
X0017119Y0008379D01*
X0016986Y0008293D01*
X0016851Y0008209D01*
X0016715Y0008130D01*
X0016576Y0008053D01*
X0016435Y0007981D01*
X0016293Y0007911D01*
X0016149Y0007846D01*
X0016003Y0007784D01*
X0015856Y0007726D01*
X0015707Y0007671D01*
X0015557Y0007620D01*
X0015406Y0007573D01*
X0015254Y0007530D01*
X0015101Y0007491D01*
X0014946Y0007455D01*
X0014791Y0007424D01*
X0014635Y0007396D01*
X0014479Y0007372D01*
X0014322Y0007352D01*
X0014164Y0007336D01*
X0014007Y0007324D01*
X0013848Y0007316D01*
X0013690Y0007312D01*
X0013532Y0007312D01*
X0013374Y0007316D01*
X0013215Y0007324D01*
X0013058Y0007336D01*
X0012900Y0007352D01*
X0012743Y0007372D01*
X0012587Y0007396D01*
X0012431Y0007424D01*
X0012276Y0007455D01*
X0012121Y0007491D01*
X0011968Y0007530D01*
X0011816Y0007573D01*
X0011665Y0007620D01*
X0011515Y0007671D01*
X0011366Y0007726D01*
X0011219Y0007784D01*
X0011073Y0007846D01*
X0010929Y0007911D01*
X0010787Y0007981D01*
X0010646Y0008053D01*
X0010507Y0008130D01*
X0010371Y0008209D01*
X0010236Y0008293D01*
X0010103Y0008379D01*
X0009973Y0008469D01*
X0009845Y0008562D01*
X0009719Y0008658D01*
X0009596Y0008758D01*
X0009475Y0008860D01*
X0009357Y0008965D01*
X0009242Y0009074D01*
X0009129Y0009185D01*
X0009019Y0009299D01*
X0008912Y0009416D01*
X0008808Y0009535D01*
X0008707Y0009657D01*
X0008610Y0009782D01*
X0008515Y0009909D01*
X0008424Y0010038D01*
X0008335Y0010169D01*
X0008251Y0010303D01*
X0008169Y0010439D01*
X0008091Y0010576D01*
X0008017Y0010716D01*
X0007946Y0010858D01*
X0007878Y0011001D01*
X0007814Y0011146D01*
X0007754Y0011292D01*
X0007698Y0011440D01*
X0007645Y0011589D01*
X0007596Y0011740D01*
X0007551Y0011892D01*
X0007510Y0012045D01*
X0007472Y0012198D01*
X0007439Y0012353D01*
X0007409Y0012509D01*
X0007383Y0012665D01*
X0007362Y0012822D01*
X0007344Y0012979D01*
X0007330Y0013137D01*
X0007320Y0013295D01*
X0007314Y0013453D01*
X0007312Y0013611D01*
X0007312Y0147469D02*
X0007314Y0147627D01*
X0007320Y0147785D01*
X0007330Y0147943D01*
X0007344Y0148101D01*
X0007362Y0148258D01*
X0007383Y0148415D01*
X0007409Y0148571D01*
X0007439Y0148727D01*
X0007472Y0148882D01*
X0007510Y0149035D01*
X0007551Y0149188D01*
X0007596Y0149340D01*
X0007645Y0149491D01*
X0007698Y0149640D01*
X0007754Y0149788D01*
X0007814Y0149934D01*
X0007878Y0150079D01*
X0007946Y0150222D01*
X0008017Y0150364D01*
X0008091Y0150504D01*
X0008169Y0150641D01*
X0008251Y0150777D01*
X0008335Y0150911D01*
X0008424Y0151042D01*
X0008515Y0151171D01*
X0008610Y0151298D01*
X0008707Y0151423D01*
X0008808Y0151545D01*
X0008912Y0151664D01*
X0009019Y0151781D01*
X0009129Y0151895D01*
X0009242Y0152006D01*
X0009357Y0152115D01*
X0009475Y0152220D01*
X0009596Y0152322D01*
X0009719Y0152422D01*
X0009845Y0152518D01*
X0009973Y0152611D01*
X0010103Y0152701D01*
X0010236Y0152787D01*
X0010371Y0152871D01*
X0010507Y0152950D01*
X0010646Y0153027D01*
X0010787Y0153099D01*
X0010929Y0153169D01*
X0011073Y0153234D01*
X0011219Y0153296D01*
X0011366Y0153354D01*
X0011515Y0153409D01*
X0011665Y0153460D01*
X0011816Y0153507D01*
X0011968Y0153550D01*
X0012121Y0153589D01*
X0012276Y0153625D01*
X0012431Y0153656D01*
X0012587Y0153684D01*
X0012743Y0153708D01*
X0012900Y0153728D01*
X0013058Y0153744D01*
X0013215Y0153756D01*
X0013374Y0153764D01*
X0013532Y0153768D01*
X0013690Y0153768D01*
X0013848Y0153764D01*
X0014007Y0153756D01*
X0014164Y0153744D01*
X0014322Y0153728D01*
X0014479Y0153708D01*
X0014635Y0153684D01*
X0014791Y0153656D01*
X0014946Y0153625D01*
X0015101Y0153589D01*
X0015254Y0153550D01*
X0015406Y0153507D01*
X0015557Y0153460D01*
X0015707Y0153409D01*
X0015856Y0153354D01*
X0016003Y0153296D01*
X0016149Y0153234D01*
X0016293Y0153169D01*
X0016435Y0153099D01*
X0016576Y0153027D01*
X0016715Y0152950D01*
X0016851Y0152871D01*
X0016986Y0152787D01*
X0017119Y0152701D01*
X0017249Y0152611D01*
X0017377Y0152518D01*
X0017503Y0152422D01*
X0017626Y0152322D01*
X0017747Y0152220D01*
X0017865Y0152115D01*
X0017980Y0152006D01*
X0018093Y0151895D01*
X0018203Y0151781D01*
X0018310Y0151664D01*
X0018414Y0151545D01*
X0018515Y0151423D01*
X0018612Y0151298D01*
X0018707Y0151171D01*
X0018798Y0151042D01*
X0018887Y0150911D01*
X0018971Y0150777D01*
X0019053Y0150641D01*
X0019131Y0150504D01*
X0019205Y0150364D01*
X0019276Y0150222D01*
X0019344Y0150079D01*
X0019408Y0149934D01*
X0019468Y0149788D01*
X0019524Y0149640D01*
X0019577Y0149491D01*
X0019626Y0149340D01*
X0019671Y0149188D01*
X0019712Y0149035D01*
X0019750Y0148882D01*
X0019783Y0148727D01*
X0019813Y0148571D01*
X0019839Y0148415D01*
X0019860Y0148258D01*
X0019878Y0148101D01*
X0019892Y0147943D01*
X0019902Y0147785D01*
X0019908Y0147627D01*
X0019910Y0147469D01*
X0019908Y0147311D01*
X0019902Y0147153D01*
X0019892Y0146995D01*
X0019878Y0146837D01*
X0019860Y0146680D01*
X0019839Y0146523D01*
X0019813Y0146367D01*
X0019783Y0146211D01*
X0019750Y0146056D01*
X0019712Y0145903D01*
X0019671Y0145750D01*
X0019626Y0145598D01*
X0019577Y0145447D01*
X0019524Y0145298D01*
X0019468Y0145150D01*
X0019408Y0145004D01*
X0019344Y0144859D01*
X0019276Y0144716D01*
X0019205Y0144574D01*
X0019131Y0144434D01*
X0019053Y0144297D01*
X0018971Y0144161D01*
X0018887Y0144027D01*
X0018798Y0143896D01*
X0018707Y0143767D01*
X0018612Y0143640D01*
X0018515Y0143515D01*
X0018414Y0143393D01*
X0018310Y0143274D01*
X0018203Y0143157D01*
X0018093Y0143043D01*
X0017980Y0142932D01*
X0017865Y0142823D01*
X0017747Y0142718D01*
X0017626Y0142616D01*
X0017503Y0142516D01*
X0017377Y0142420D01*
X0017249Y0142327D01*
X0017119Y0142237D01*
X0016986Y0142151D01*
X0016851Y0142067D01*
X0016715Y0141988D01*
X0016576Y0141911D01*
X0016435Y0141839D01*
X0016293Y0141769D01*
X0016149Y0141704D01*
X0016003Y0141642D01*
X0015856Y0141584D01*
X0015707Y0141529D01*
X0015557Y0141478D01*
X0015406Y0141431D01*
X0015254Y0141388D01*
X0015101Y0141349D01*
X0014946Y0141313D01*
X0014791Y0141282D01*
X0014635Y0141254D01*
X0014479Y0141230D01*
X0014322Y0141210D01*
X0014164Y0141194D01*
X0014007Y0141182D01*
X0013848Y0141174D01*
X0013690Y0141170D01*
X0013532Y0141170D01*
X0013374Y0141174D01*
X0013215Y0141182D01*
X0013058Y0141194D01*
X0012900Y0141210D01*
X0012743Y0141230D01*
X0012587Y0141254D01*
X0012431Y0141282D01*
X0012276Y0141313D01*
X0012121Y0141349D01*
X0011968Y0141388D01*
X0011816Y0141431D01*
X0011665Y0141478D01*
X0011515Y0141529D01*
X0011366Y0141584D01*
X0011219Y0141642D01*
X0011073Y0141704D01*
X0010929Y0141769D01*
X0010787Y0141839D01*
X0010646Y0141911D01*
X0010507Y0141988D01*
X0010371Y0142067D01*
X0010236Y0142151D01*
X0010103Y0142237D01*
X0009973Y0142327D01*
X0009845Y0142420D01*
X0009719Y0142516D01*
X0009596Y0142616D01*
X0009475Y0142718D01*
X0009357Y0142823D01*
X0009242Y0142932D01*
X0009129Y0143043D01*
X0009019Y0143157D01*
X0008912Y0143274D01*
X0008808Y0143393D01*
X0008707Y0143515D01*
X0008610Y0143640D01*
X0008515Y0143767D01*
X0008424Y0143896D01*
X0008335Y0144027D01*
X0008251Y0144161D01*
X0008169Y0144297D01*
X0008091Y0144434D01*
X0008017Y0144574D01*
X0007946Y0144716D01*
X0007878Y0144859D01*
X0007814Y0145004D01*
X0007754Y0145150D01*
X0007698Y0145298D01*
X0007645Y0145447D01*
X0007596Y0145598D01*
X0007551Y0145750D01*
X0007510Y0145903D01*
X0007472Y0146056D01*
X0007439Y0146211D01*
X0007409Y0146367D01*
X0007383Y0146523D01*
X0007362Y0146680D01*
X0007344Y0146837D01*
X0007330Y0146995D01*
X0007320Y0147153D01*
X0007314Y0147311D01*
X0007312Y0147469D01*
X0324300Y0086800D02*
X0324302Y0086961D01*
X0324308Y0087121D01*
X0324318Y0087282D01*
X0324332Y0087442D01*
X0324350Y0087602D01*
X0324371Y0087761D01*
X0324397Y0087920D01*
X0324427Y0088078D01*
X0324460Y0088235D01*
X0324498Y0088392D01*
X0324539Y0088547D01*
X0324584Y0088701D01*
X0324633Y0088854D01*
X0324686Y0089006D01*
X0324742Y0089157D01*
X0324803Y0089306D01*
X0324866Y0089454D01*
X0324934Y0089600D01*
X0325005Y0089744D01*
X0325079Y0089886D01*
X0325157Y0090027D01*
X0325239Y0090165D01*
X0325324Y0090302D01*
X0325412Y0090436D01*
X0325504Y0090568D01*
X0325599Y0090698D01*
X0325697Y0090826D01*
X0325798Y0090951D01*
X0325902Y0091073D01*
X0326009Y0091193D01*
X0326119Y0091310D01*
X0326232Y0091425D01*
X0326348Y0091536D01*
X0326467Y0091645D01*
X0326588Y0091750D01*
X0326712Y0091853D01*
X0326838Y0091953D01*
X0326966Y0092049D01*
X0327097Y0092142D01*
X0327231Y0092232D01*
X0327366Y0092319D01*
X0327504Y0092402D01*
X0327643Y0092482D01*
X0327785Y0092558D01*
X0327928Y0092631D01*
X0328073Y0092700D01*
X0328220Y0092766D01*
X0328368Y0092828D01*
X0328518Y0092886D01*
X0328669Y0092941D01*
X0328822Y0092992D01*
X0328976Y0093039D01*
X0329131Y0093082D01*
X0329287Y0093121D01*
X0329443Y0093157D01*
X0329601Y0093188D01*
X0329759Y0093216D01*
X0329918Y0093240D01*
X0330078Y0093260D01*
X0330238Y0093276D01*
X0330398Y0093288D01*
X0330559Y0093296D01*
X0330720Y0093300D01*
X0330880Y0093300D01*
X0331041Y0093296D01*
X0331202Y0093288D01*
X0331362Y0093276D01*
X0331522Y0093260D01*
X0331682Y0093240D01*
X0331841Y0093216D01*
X0331999Y0093188D01*
X0332157Y0093157D01*
X0332313Y0093121D01*
X0332469Y0093082D01*
X0332624Y0093039D01*
X0332778Y0092992D01*
X0332931Y0092941D01*
X0333082Y0092886D01*
X0333232Y0092828D01*
X0333380Y0092766D01*
X0333527Y0092700D01*
X0333672Y0092631D01*
X0333815Y0092558D01*
X0333957Y0092482D01*
X0334096Y0092402D01*
X0334234Y0092319D01*
X0334369Y0092232D01*
X0334503Y0092142D01*
X0334634Y0092049D01*
X0334762Y0091953D01*
X0334888Y0091853D01*
X0335012Y0091750D01*
X0335133Y0091645D01*
X0335252Y0091536D01*
X0335368Y0091425D01*
X0335481Y0091310D01*
X0335591Y0091193D01*
X0335698Y0091073D01*
X0335802Y0090951D01*
X0335903Y0090826D01*
X0336001Y0090698D01*
X0336096Y0090568D01*
X0336188Y0090436D01*
X0336276Y0090302D01*
X0336361Y0090165D01*
X0336443Y0090027D01*
X0336521Y0089886D01*
X0336595Y0089744D01*
X0336666Y0089600D01*
X0336734Y0089454D01*
X0336797Y0089306D01*
X0336858Y0089157D01*
X0336914Y0089006D01*
X0336967Y0088854D01*
X0337016Y0088701D01*
X0337061Y0088547D01*
X0337102Y0088392D01*
X0337140Y0088235D01*
X0337173Y0088078D01*
X0337203Y0087920D01*
X0337229Y0087761D01*
X0337250Y0087602D01*
X0337268Y0087442D01*
X0337282Y0087282D01*
X0337292Y0087121D01*
X0337298Y0086961D01*
X0337300Y0086800D01*
X0337298Y0086639D01*
X0337292Y0086479D01*
X0337282Y0086318D01*
X0337268Y0086158D01*
X0337250Y0085998D01*
X0337229Y0085839D01*
X0337203Y0085680D01*
X0337173Y0085522D01*
X0337140Y0085365D01*
X0337102Y0085208D01*
X0337061Y0085053D01*
X0337016Y0084899D01*
X0336967Y0084746D01*
X0336914Y0084594D01*
X0336858Y0084443D01*
X0336797Y0084294D01*
X0336734Y0084146D01*
X0336666Y0084000D01*
X0336595Y0083856D01*
X0336521Y0083714D01*
X0336443Y0083573D01*
X0336361Y0083435D01*
X0336276Y0083298D01*
X0336188Y0083164D01*
X0336096Y0083032D01*
X0336001Y0082902D01*
X0335903Y0082774D01*
X0335802Y0082649D01*
X0335698Y0082527D01*
X0335591Y0082407D01*
X0335481Y0082290D01*
X0335368Y0082175D01*
X0335252Y0082064D01*
X0335133Y0081955D01*
X0335012Y0081850D01*
X0334888Y0081747D01*
X0334762Y0081647D01*
X0334634Y0081551D01*
X0334503Y0081458D01*
X0334369Y0081368D01*
X0334234Y0081281D01*
X0334096Y0081198D01*
X0333957Y0081118D01*
X0333815Y0081042D01*
X0333672Y0080969D01*
X0333527Y0080900D01*
X0333380Y0080834D01*
X0333232Y0080772D01*
X0333082Y0080714D01*
X0332931Y0080659D01*
X0332778Y0080608D01*
X0332624Y0080561D01*
X0332469Y0080518D01*
X0332313Y0080479D01*
X0332157Y0080443D01*
X0331999Y0080412D01*
X0331841Y0080384D01*
X0331682Y0080360D01*
X0331522Y0080340D01*
X0331362Y0080324D01*
X0331202Y0080312D01*
X0331041Y0080304D01*
X0330880Y0080300D01*
X0330720Y0080300D01*
X0330559Y0080304D01*
X0330398Y0080312D01*
X0330238Y0080324D01*
X0330078Y0080340D01*
X0329918Y0080360D01*
X0329759Y0080384D01*
X0329601Y0080412D01*
X0329443Y0080443D01*
X0329287Y0080479D01*
X0329131Y0080518D01*
X0328976Y0080561D01*
X0328822Y0080608D01*
X0328669Y0080659D01*
X0328518Y0080714D01*
X0328368Y0080772D01*
X0328220Y0080834D01*
X0328073Y0080900D01*
X0327928Y0080969D01*
X0327785Y0081042D01*
X0327643Y0081118D01*
X0327504Y0081198D01*
X0327366Y0081281D01*
X0327231Y0081368D01*
X0327097Y0081458D01*
X0326966Y0081551D01*
X0326838Y0081647D01*
X0326712Y0081747D01*
X0326588Y0081850D01*
X0326467Y0081955D01*
X0326348Y0082064D01*
X0326232Y0082175D01*
X0326119Y0082290D01*
X0326009Y0082407D01*
X0325902Y0082527D01*
X0325798Y0082649D01*
X0325697Y0082774D01*
X0325599Y0082902D01*
X0325504Y0083032D01*
X0325412Y0083164D01*
X0325324Y0083298D01*
X0325239Y0083435D01*
X0325157Y0083573D01*
X0325079Y0083714D01*
X0325005Y0083856D01*
X0324934Y0084000D01*
X0324866Y0084146D01*
X0324803Y0084294D01*
X0324742Y0084443D01*
X0324686Y0084594D01*
X0324633Y0084746D01*
X0324584Y0084899D01*
X0324539Y0085053D01*
X0324498Y0085208D01*
X0324460Y0085365D01*
X0324427Y0085522D01*
X0324397Y0085680D01*
X0324371Y0085839D01*
X0324350Y0085998D01*
X0324332Y0086158D01*
X0324318Y0086318D01*
X0324308Y0086479D01*
X0324302Y0086639D01*
X0324300Y0086800D01*
X0338021Y0147469D02*
X0338023Y0147627D01*
X0338029Y0147785D01*
X0338039Y0147943D01*
X0338053Y0148101D01*
X0338071Y0148258D01*
X0338092Y0148415D01*
X0338118Y0148571D01*
X0338148Y0148727D01*
X0338181Y0148882D01*
X0338219Y0149035D01*
X0338260Y0149188D01*
X0338305Y0149340D01*
X0338354Y0149491D01*
X0338407Y0149640D01*
X0338463Y0149788D01*
X0338523Y0149934D01*
X0338587Y0150079D01*
X0338655Y0150222D01*
X0338726Y0150364D01*
X0338800Y0150504D01*
X0338878Y0150641D01*
X0338960Y0150777D01*
X0339044Y0150911D01*
X0339133Y0151042D01*
X0339224Y0151171D01*
X0339319Y0151298D01*
X0339416Y0151423D01*
X0339517Y0151545D01*
X0339621Y0151664D01*
X0339728Y0151781D01*
X0339838Y0151895D01*
X0339951Y0152006D01*
X0340066Y0152115D01*
X0340184Y0152220D01*
X0340305Y0152322D01*
X0340428Y0152422D01*
X0340554Y0152518D01*
X0340682Y0152611D01*
X0340812Y0152701D01*
X0340945Y0152787D01*
X0341080Y0152871D01*
X0341216Y0152950D01*
X0341355Y0153027D01*
X0341496Y0153099D01*
X0341638Y0153169D01*
X0341782Y0153234D01*
X0341928Y0153296D01*
X0342075Y0153354D01*
X0342224Y0153409D01*
X0342374Y0153460D01*
X0342525Y0153507D01*
X0342677Y0153550D01*
X0342830Y0153589D01*
X0342985Y0153625D01*
X0343140Y0153656D01*
X0343296Y0153684D01*
X0343452Y0153708D01*
X0343609Y0153728D01*
X0343767Y0153744D01*
X0343924Y0153756D01*
X0344083Y0153764D01*
X0344241Y0153768D01*
X0344399Y0153768D01*
X0344557Y0153764D01*
X0344716Y0153756D01*
X0344873Y0153744D01*
X0345031Y0153728D01*
X0345188Y0153708D01*
X0345344Y0153684D01*
X0345500Y0153656D01*
X0345655Y0153625D01*
X0345810Y0153589D01*
X0345963Y0153550D01*
X0346115Y0153507D01*
X0346266Y0153460D01*
X0346416Y0153409D01*
X0346565Y0153354D01*
X0346712Y0153296D01*
X0346858Y0153234D01*
X0347002Y0153169D01*
X0347144Y0153099D01*
X0347285Y0153027D01*
X0347424Y0152950D01*
X0347560Y0152871D01*
X0347695Y0152787D01*
X0347828Y0152701D01*
X0347958Y0152611D01*
X0348086Y0152518D01*
X0348212Y0152422D01*
X0348335Y0152322D01*
X0348456Y0152220D01*
X0348574Y0152115D01*
X0348689Y0152006D01*
X0348802Y0151895D01*
X0348912Y0151781D01*
X0349019Y0151664D01*
X0349123Y0151545D01*
X0349224Y0151423D01*
X0349321Y0151298D01*
X0349416Y0151171D01*
X0349507Y0151042D01*
X0349596Y0150911D01*
X0349680Y0150777D01*
X0349762Y0150641D01*
X0349840Y0150504D01*
X0349914Y0150364D01*
X0349985Y0150222D01*
X0350053Y0150079D01*
X0350117Y0149934D01*
X0350177Y0149788D01*
X0350233Y0149640D01*
X0350286Y0149491D01*
X0350335Y0149340D01*
X0350380Y0149188D01*
X0350421Y0149035D01*
X0350459Y0148882D01*
X0350492Y0148727D01*
X0350522Y0148571D01*
X0350548Y0148415D01*
X0350569Y0148258D01*
X0350587Y0148101D01*
X0350601Y0147943D01*
X0350611Y0147785D01*
X0350617Y0147627D01*
X0350619Y0147469D01*
X0350617Y0147311D01*
X0350611Y0147153D01*
X0350601Y0146995D01*
X0350587Y0146837D01*
X0350569Y0146680D01*
X0350548Y0146523D01*
X0350522Y0146367D01*
X0350492Y0146211D01*
X0350459Y0146056D01*
X0350421Y0145903D01*
X0350380Y0145750D01*
X0350335Y0145598D01*
X0350286Y0145447D01*
X0350233Y0145298D01*
X0350177Y0145150D01*
X0350117Y0145004D01*
X0350053Y0144859D01*
X0349985Y0144716D01*
X0349914Y0144574D01*
X0349840Y0144434D01*
X0349762Y0144297D01*
X0349680Y0144161D01*
X0349596Y0144027D01*
X0349507Y0143896D01*
X0349416Y0143767D01*
X0349321Y0143640D01*
X0349224Y0143515D01*
X0349123Y0143393D01*
X0349019Y0143274D01*
X0348912Y0143157D01*
X0348802Y0143043D01*
X0348689Y0142932D01*
X0348574Y0142823D01*
X0348456Y0142718D01*
X0348335Y0142616D01*
X0348212Y0142516D01*
X0348086Y0142420D01*
X0347958Y0142327D01*
X0347828Y0142237D01*
X0347695Y0142151D01*
X0347560Y0142067D01*
X0347424Y0141988D01*
X0347285Y0141911D01*
X0347144Y0141839D01*
X0347002Y0141769D01*
X0346858Y0141704D01*
X0346712Y0141642D01*
X0346565Y0141584D01*
X0346416Y0141529D01*
X0346266Y0141478D01*
X0346115Y0141431D01*
X0345963Y0141388D01*
X0345810Y0141349D01*
X0345655Y0141313D01*
X0345500Y0141282D01*
X0345344Y0141254D01*
X0345188Y0141230D01*
X0345031Y0141210D01*
X0344873Y0141194D01*
X0344716Y0141182D01*
X0344557Y0141174D01*
X0344399Y0141170D01*
X0344241Y0141170D01*
X0344083Y0141174D01*
X0343924Y0141182D01*
X0343767Y0141194D01*
X0343609Y0141210D01*
X0343452Y0141230D01*
X0343296Y0141254D01*
X0343140Y0141282D01*
X0342985Y0141313D01*
X0342830Y0141349D01*
X0342677Y0141388D01*
X0342525Y0141431D01*
X0342374Y0141478D01*
X0342224Y0141529D01*
X0342075Y0141584D01*
X0341928Y0141642D01*
X0341782Y0141704D01*
X0341638Y0141769D01*
X0341496Y0141839D01*
X0341355Y0141911D01*
X0341216Y0141988D01*
X0341080Y0142067D01*
X0340945Y0142151D01*
X0340812Y0142237D01*
X0340682Y0142327D01*
X0340554Y0142420D01*
X0340428Y0142516D01*
X0340305Y0142616D01*
X0340184Y0142718D01*
X0340066Y0142823D01*
X0339951Y0142932D01*
X0339838Y0143043D01*
X0339728Y0143157D01*
X0339621Y0143274D01*
X0339517Y0143393D01*
X0339416Y0143515D01*
X0339319Y0143640D01*
X0339224Y0143767D01*
X0339133Y0143896D01*
X0339044Y0144027D01*
X0338960Y0144161D01*
X0338878Y0144297D01*
X0338800Y0144434D01*
X0338726Y0144574D01*
X0338655Y0144716D01*
X0338587Y0144859D01*
X0338523Y0145004D01*
X0338463Y0145150D01*
X0338407Y0145298D01*
X0338354Y0145447D01*
X0338305Y0145598D01*
X0338260Y0145750D01*
X0338219Y0145903D01*
X0338181Y0146056D01*
X0338148Y0146211D01*
X0338118Y0146367D01*
X0338092Y0146523D01*
X0338071Y0146680D01*
X0338053Y0146837D01*
X0338039Y0146995D01*
X0338029Y0147153D01*
X0338023Y0147311D01*
X0338021Y0147469D01*
X0338021Y0013611D02*
X0338023Y0013769D01*
X0338029Y0013927D01*
X0338039Y0014085D01*
X0338053Y0014243D01*
X0338071Y0014400D01*
X0338092Y0014557D01*
X0338118Y0014713D01*
X0338148Y0014869D01*
X0338181Y0015024D01*
X0338219Y0015177D01*
X0338260Y0015330D01*
X0338305Y0015482D01*
X0338354Y0015633D01*
X0338407Y0015782D01*
X0338463Y0015930D01*
X0338523Y0016076D01*
X0338587Y0016221D01*
X0338655Y0016364D01*
X0338726Y0016506D01*
X0338800Y0016646D01*
X0338878Y0016783D01*
X0338960Y0016919D01*
X0339044Y0017053D01*
X0339133Y0017184D01*
X0339224Y0017313D01*
X0339319Y0017440D01*
X0339416Y0017565D01*
X0339517Y0017687D01*
X0339621Y0017806D01*
X0339728Y0017923D01*
X0339838Y0018037D01*
X0339951Y0018148D01*
X0340066Y0018257D01*
X0340184Y0018362D01*
X0340305Y0018464D01*
X0340428Y0018564D01*
X0340554Y0018660D01*
X0340682Y0018753D01*
X0340812Y0018843D01*
X0340945Y0018929D01*
X0341080Y0019013D01*
X0341216Y0019092D01*
X0341355Y0019169D01*
X0341496Y0019241D01*
X0341638Y0019311D01*
X0341782Y0019376D01*
X0341928Y0019438D01*
X0342075Y0019496D01*
X0342224Y0019551D01*
X0342374Y0019602D01*
X0342525Y0019649D01*
X0342677Y0019692D01*
X0342830Y0019731D01*
X0342985Y0019767D01*
X0343140Y0019798D01*
X0343296Y0019826D01*
X0343452Y0019850D01*
X0343609Y0019870D01*
X0343767Y0019886D01*
X0343924Y0019898D01*
X0344083Y0019906D01*
X0344241Y0019910D01*
X0344399Y0019910D01*
X0344557Y0019906D01*
X0344716Y0019898D01*
X0344873Y0019886D01*
X0345031Y0019870D01*
X0345188Y0019850D01*
X0345344Y0019826D01*
X0345500Y0019798D01*
X0345655Y0019767D01*
X0345810Y0019731D01*
X0345963Y0019692D01*
X0346115Y0019649D01*
X0346266Y0019602D01*
X0346416Y0019551D01*
X0346565Y0019496D01*
X0346712Y0019438D01*
X0346858Y0019376D01*
X0347002Y0019311D01*
X0347144Y0019241D01*
X0347285Y0019169D01*
X0347424Y0019092D01*
X0347560Y0019013D01*
X0347695Y0018929D01*
X0347828Y0018843D01*
X0347958Y0018753D01*
X0348086Y0018660D01*
X0348212Y0018564D01*
X0348335Y0018464D01*
X0348456Y0018362D01*
X0348574Y0018257D01*
X0348689Y0018148D01*
X0348802Y0018037D01*
X0348912Y0017923D01*
X0349019Y0017806D01*
X0349123Y0017687D01*
X0349224Y0017565D01*
X0349321Y0017440D01*
X0349416Y0017313D01*
X0349507Y0017184D01*
X0349596Y0017053D01*
X0349680Y0016919D01*
X0349762Y0016783D01*
X0349840Y0016646D01*
X0349914Y0016506D01*
X0349985Y0016364D01*
X0350053Y0016221D01*
X0350117Y0016076D01*
X0350177Y0015930D01*
X0350233Y0015782D01*
X0350286Y0015633D01*
X0350335Y0015482D01*
X0350380Y0015330D01*
X0350421Y0015177D01*
X0350459Y0015024D01*
X0350492Y0014869D01*
X0350522Y0014713D01*
X0350548Y0014557D01*
X0350569Y0014400D01*
X0350587Y0014243D01*
X0350601Y0014085D01*
X0350611Y0013927D01*
X0350617Y0013769D01*
X0350619Y0013611D01*
X0350617Y0013453D01*
X0350611Y0013295D01*
X0350601Y0013137D01*
X0350587Y0012979D01*
X0350569Y0012822D01*
X0350548Y0012665D01*
X0350522Y0012509D01*
X0350492Y0012353D01*
X0350459Y0012198D01*
X0350421Y0012045D01*
X0350380Y0011892D01*
X0350335Y0011740D01*
X0350286Y0011589D01*
X0350233Y0011440D01*
X0350177Y0011292D01*
X0350117Y0011146D01*
X0350053Y0011001D01*
X0349985Y0010858D01*
X0349914Y0010716D01*
X0349840Y0010576D01*
X0349762Y0010439D01*
X0349680Y0010303D01*
X0349596Y0010169D01*
X0349507Y0010038D01*
X0349416Y0009909D01*
X0349321Y0009782D01*
X0349224Y0009657D01*
X0349123Y0009535D01*
X0349019Y0009416D01*
X0348912Y0009299D01*
X0348802Y0009185D01*
X0348689Y0009074D01*
X0348574Y0008965D01*
X0348456Y0008860D01*
X0348335Y0008758D01*
X0348212Y0008658D01*
X0348086Y0008562D01*
X0347958Y0008469D01*
X0347828Y0008379D01*
X0347695Y0008293D01*
X0347560Y0008209D01*
X0347424Y0008130D01*
X0347285Y0008053D01*
X0347144Y0007981D01*
X0347002Y0007911D01*
X0346858Y0007846D01*
X0346712Y0007784D01*
X0346565Y0007726D01*
X0346416Y0007671D01*
X0346266Y0007620D01*
X0346115Y0007573D01*
X0345963Y0007530D01*
X0345810Y0007491D01*
X0345655Y0007455D01*
X0345500Y0007424D01*
X0345344Y0007396D01*
X0345188Y0007372D01*
X0345031Y0007352D01*
X0344873Y0007336D01*
X0344716Y0007324D01*
X0344557Y0007316D01*
X0344399Y0007312D01*
X0344241Y0007312D01*
X0344083Y0007316D01*
X0343924Y0007324D01*
X0343767Y0007336D01*
X0343609Y0007352D01*
X0343452Y0007372D01*
X0343296Y0007396D01*
X0343140Y0007424D01*
X0342985Y0007455D01*
X0342830Y0007491D01*
X0342677Y0007530D01*
X0342525Y0007573D01*
X0342374Y0007620D01*
X0342224Y0007671D01*
X0342075Y0007726D01*
X0341928Y0007784D01*
X0341782Y0007846D01*
X0341638Y0007911D01*
X0341496Y0007981D01*
X0341355Y0008053D01*
X0341216Y0008130D01*
X0341080Y0008209D01*
X0340945Y0008293D01*
X0340812Y0008379D01*
X0340682Y0008469D01*
X0340554Y0008562D01*
X0340428Y0008658D01*
X0340305Y0008758D01*
X0340184Y0008860D01*
X0340066Y0008965D01*
X0339951Y0009074D01*
X0339838Y0009185D01*
X0339728Y0009299D01*
X0339621Y0009416D01*
X0339517Y0009535D01*
X0339416Y0009657D01*
X0339319Y0009782D01*
X0339224Y0009909D01*
X0339133Y0010038D01*
X0339044Y0010169D01*
X0338960Y0010303D01*
X0338878Y0010439D01*
X0338800Y0010576D01*
X0338726Y0010716D01*
X0338655Y0010858D01*
X0338587Y0011001D01*
X0338523Y0011146D01*
X0338463Y0011292D01*
X0338407Y0011440D01*
X0338354Y0011589D01*
X0338305Y0011740D01*
X0338260Y0011892D01*
X0338219Y0012045D01*
X0338181Y0012198D01*
X0338148Y0012353D01*
X0338118Y0012509D01*
X0338092Y0012665D01*
X0338071Y0012822D01*
X0338053Y0012979D01*
X0338039Y0013137D01*
X0338029Y0013295D01*
X0338023Y0013453D01*
X0338021Y0013611D01*
D11*
X0296800Y0020800D03*
X0256800Y0042800D03*
X0226800Y0042800D03*
X0215800Y0042800D03*
X0185800Y0042800D03*
X0174800Y0042800D03*
X0144800Y0042800D03*
X0136800Y0080800D03*
X0166800Y0080800D03*
X0206800Y0080800D03*
X0236800Y0080800D03*
X0296800Y0050800D03*
X0281800Y0121800D03*
X0281800Y0141800D03*
X0206800Y0136800D03*
X0186800Y0136800D03*
X0116800Y0136800D03*
X0096800Y0136800D03*
X0040800Y0110800D03*
X0049800Y0100800D03*
X0040800Y0080800D03*
X0049800Y0070800D03*
D12*
X0278800Y0057800D03*
X0278800Y0047800D03*
D13*
X0256800Y0136800D03*
X0246800Y0136800D03*
X0236800Y0136800D03*
X0226800Y0136800D03*
X0166800Y0136800D03*
X0156800Y0136800D03*
X0146800Y0136800D03*
X0136800Y0136800D03*
X0062737Y0090737D03*
X0062737Y0080737D03*
X0062737Y0070737D03*
X0062737Y0060737D03*
D14*
X0268500Y0076800D02*
X0275100Y0076800D01*
X0275100Y0086800D02*
X0268500Y0086800D01*
X0268500Y0096800D02*
X0275100Y0096800D01*
D15*
X0316800Y0125107D03*
X0316800Y0138887D03*
X0080737Y0140737D03*
X0080737Y0130737D03*
X0080737Y0120737D03*
X0080737Y0110737D03*
X0080737Y0100737D03*
X0080737Y0090737D03*
X0080737Y0080737D03*
X0080737Y0070737D03*
X0080737Y0060737D03*
X0080737Y0050737D03*
X0080737Y0040737D03*
X0080737Y0030737D03*
X0030737Y0030737D03*
X0030737Y0040737D03*
X0030737Y0050737D03*
X0030737Y0060737D03*
X0030737Y0070737D03*
X0030737Y0080737D03*
X0030737Y0090737D03*
X0030737Y0100737D03*
X0030737Y0110737D03*
X0030737Y0120737D03*
X0030737Y0130737D03*
D16*
X0136800Y0029800D02*
X0136800Y0023800D01*
X0146800Y0023800D02*
X0146800Y0029800D01*
X0156800Y0029800D02*
X0156800Y0023800D01*
X0166800Y0023800D02*
X0166800Y0029800D01*
X0176800Y0029800D02*
X0176800Y0023800D01*
X0186800Y0023800D02*
X0186800Y0029800D01*
X0196800Y0029800D02*
X0196800Y0023800D01*
X0206800Y0023800D02*
X0206800Y0029800D01*
X0216800Y0029800D02*
X0216800Y0023800D01*
X0226800Y0023800D02*
X0226800Y0029800D01*
X0236800Y0029800D02*
X0236800Y0023800D01*
X0246800Y0023800D02*
X0246800Y0029800D01*
X0256800Y0029800D02*
X0256800Y0023800D01*
X0266800Y0023800D02*
X0266800Y0029800D01*
X0276800Y0029800D02*
X0276800Y0023800D01*
X0286800Y0023800D02*
X0286800Y0029800D01*
D17*
X0261800Y0061800D03*
X0251800Y0061800D03*
X0241800Y0061800D03*
X0231800Y0061800D03*
X0221800Y0061800D03*
X0211800Y0061800D03*
X0201800Y0061800D03*
X0191800Y0061800D03*
X0171800Y0061800D03*
X0161800Y0061800D03*
X0151800Y0061800D03*
X0141800Y0061800D03*
X0131800Y0061800D03*
X0121800Y0061800D03*
X0111800Y0061800D03*
X0101800Y0061800D03*
X0101800Y0111800D03*
X0111800Y0111800D03*
X0121800Y0111800D03*
X0131800Y0111800D03*
X0141800Y0111800D03*
X0151800Y0111800D03*
X0161800Y0111800D03*
X0171800Y0111800D03*
X0191800Y0111800D03*
X0201800Y0111800D03*
X0211800Y0111800D03*
X0221800Y0111800D03*
X0231800Y0111800D03*
X0241800Y0111800D03*
X0251800Y0111800D03*
X0261800Y0111800D03*
D18*
X0030737Y0140737D03*
D19*
X0306646Y0046414D03*
X0327367Y0046367D03*
X0327383Y0025666D03*
X0306662Y0025713D03*
D20*
X0120800Y0027800D03*
X0100800Y0027800D03*
X0110800Y0037800D03*
D21*
X0068800Y0030800D03*
X0042800Y0050800D03*
X0042800Y0060800D03*
X0042800Y0130800D03*
X0068800Y0130800D03*
D22*
X0121800Y0111800D02*
X0136800Y0126800D01*
X0136800Y0136800D01*
X0146800Y0136800D02*
X0146800Y0126800D01*
X0131800Y0111800D01*
X0141800Y0111800D02*
X0156800Y0126800D01*
X0156800Y0136800D01*
X0166800Y0136800D02*
X0166800Y0126800D01*
X0151800Y0111800D01*
X0211800Y0111800D02*
X0226800Y0126800D01*
X0226800Y0136800D01*
X0236800Y0136800D02*
X0236800Y0126800D01*
X0221800Y0111800D01*
X0231800Y0111800D02*
X0246800Y0126800D01*
X0246800Y0136800D01*
X0256800Y0136800D02*
X0256800Y0126800D01*
X0241800Y0111800D01*
D23*
X0251800Y0111800D02*
X0251800Y0085800D01*
X0260800Y0076800D01*
X0271800Y0076800D01*
X0273800Y0076800D01*
X0278800Y0071800D01*
X0278800Y0057800D01*
X0282800Y0053800D01*
X0293800Y0053800D01*
X0296800Y0050800D01*
X0276800Y0026800D02*
X0276800Y0020800D01*
X0279800Y0017800D01*
X0293800Y0017800D01*
X0296800Y0020800D01*
X0246800Y0080800D02*
X0236800Y0080800D01*
X0234800Y0080800D01*
X0219800Y0095800D01*
X0193800Y0095800D01*
X0178800Y0080800D01*
X0166800Y0080800D01*
X0165800Y0080800D01*
X0161800Y0084800D01*
X0161800Y0091800D01*
X0161300Y0092300D01*
X0162300Y0092300D01*
X0164800Y0094800D01*
X0164800Y0108800D01*
X0161800Y0111800D01*
X0154800Y0098800D02*
X0161300Y0092300D01*
X0154800Y0098800D02*
X0102800Y0098800D01*
X0093800Y0107800D01*
X0093800Y0127674D01*
X0080737Y0140737D01*
X0080674Y0140800D01*
X0062800Y0140800D01*
X0040800Y0118800D01*
X0040800Y0110800D01*
X0040800Y0109800D01*
X0049800Y0100800D01*
X0059800Y0100800D01*
X0062800Y0097800D01*
X0062800Y0090800D01*
X0062737Y0090737D01*
X0062863Y0090737D01*
X0071800Y0081800D01*
X0071800Y0055800D01*
X0058800Y0042800D01*
X0058800Y0027800D01*
X0064800Y0021800D01*
X0094800Y0021800D01*
X0100800Y0027800D01*
X0105800Y0032800D01*
X0125800Y0032800D01*
X0127800Y0034800D01*
X0142800Y0034800D01*
X0146800Y0030800D01*
X0146800Y0026800D01*
X0246800Y0080800D02*
X0251800Y0085800D01*
D24*
X0248800Y0074800D02*
X0230800Y0074800D01*
X0216800Y0088800D01*
X0196800Y0088800D01*
X0182800Y0074800D01*
X0161800Y0074800D01*
X0143800Y0092800D01*
X0094800Y0092800D01*
X0089800Y0097800D01*
X0089800Y0111674D01*
X0080737Y0120737D01*
X0080863Y0110737D02*
X0080737Y0110737D01*
X0080863Y0110737D02*
X0087800Y0103800D01*
X0087800Y0096800D01*
X0093800Y0090800D01*
X0142800Y0090800D01*
X0160800Y0072800D01*
X0183800Y0072800D01*
X0197800Y0086800D01*
X0215800Y0086800D01*
X0229800Y0072800D01*
X0240800Y0072800D01*
X0251800Y0061800D01*
X0241800Y0061800D02*
X0231800Y0061800D01*
X0211800Y0061800D02*
X0206800Y0066800D01*
X0201800Y0061800D01*
X0206800Y0066800D02*
X0206800Y0080800D01*
X0191800Y0061800D02*
X0185800Y0055800D01*
X0107800Y0055800D01*
X0101800Y0061800D01*
X0099674Y0061800D01*
X0080737Y0080737D01*
X0087863Y0090737D02*
X0091800Y0086800D01*
X0140800Y0086800D01*
X0161800Y0065800D01*
X0161800Y0061800D01*
X0162800Y0070800D02*
X0171800Y0061800D01*
X0162800Y0070800D02*
X0159800Y0070800D01*
X0141800Y0088800D01*
X0092674Y0088800D01*
X0080737Y0100737D01*
X0080737Y0090737D02*
X0087863Y0090737D01*
X0062737Y0070737D02*
X0052674Y0080800D01*
X0040800Y0080800D01*
X0030800Y0080800D01*
X0030737Y0080737D01*
X0024800Y0084800D02*
X0024800Y0025800D01*
X0032800Y0017800D01*
X0234800Y0017800D01*
X0236800Y0019800D01*
X0236800Y0026800D01*
X0246800Y0026800D02*
X0246800Y0019800D01*
X0242800Y0015800D01*
X0031800Y0015800D01*
X0022800Y0024800D01*
X0022800Y0092800D01*
X0030737Y0100737D01*
X0020800Y0100800D02*
X0020800Y0023800D01*
X0030800Y0013800D01*
X0250800Y0013800D01*
X0256800Y0019800D01*
X0256800Y0026800D01*
X0266800Y0026800D02*
X0266800Y0019800D01*
X0258800Y0011800D01*
X0029800Y0011800D01*
X0018800Y0022800D01*
X0018800Y0108800D01*
X0030737Y0120737D01*
X0030737Y0110737D02*
X0020800Y0100800D01*
X0030737Y0090737D02*
X0024800Y0084800D01*
X0030737Y0070737D02*
X0049737Y0070737D01*
X0049800Y0070800D01*
X0052674Y0070800D01*
X0062737Y0060737D01*
X0080737Y0060737D02*
X0085863Y0060737D01*
X0087800Y0058800D01*
X0087800Y0054800D01*
X0090800Y0051800D01*
X0151800Y0051800D01*
X0167800Y0035800D01*
X0174800Y0035800D01*
X0176800Y0033800D01*
X0176800Y0026800D01*
X0166800Y0026800D02*
X0166800Y0033800D01*
X0151300Y0049300D01*
X0150800Y0049800D01*
X0083800Y0049800D01*
X0082863Y0050737D01*
X0080737Y0050737D01*
X0087800Y0047800D02*
X0080737Y0040737D01*
X0087800Y0047800D02*
X0139800Y0047800D01*
X0144800Y0042800D01*
X0147800Y0037800D02*
X0110800Y0037800D01*
X0080737Y0030737D02*
X0080674Y0030800D01*
X0068800Y0030800D01*
X0042800Y0050800D02*
X0042737Y0050737D01*
X0030737Y0050737D01*
X0030737Y0060737D02*
X0042737Y0060737D01*
X0042800Y0060800D01*
X0080737Y0070737D02*
X0086737Y0070737D01*
X0086800Y0070800D01*
X0089800Y0067800D01*
X0089800Y0055800D01*
X0091800Y0053800D01*
X0152800Y0053800D01*
X0168800Y0037800D01*
X0175800Y0037800D01*
X0186800Y0026800D01*
X0181800Y0035800D02*
X0300800Y0035800D01*
X0302800Y0035800D01*
X0304800Y0035800D01*
X0306662Y0033938D01*
X0306662Y0025713D01*
X0326800Y0026249D02*
X0327383Y0025666D01*
X0326800Y0026249D02*
X0326800Y0033800D01*
X0322800Y0037800D01*
X0220800Y0037800D01*
X0215800Y0042800D01*
X0181800Y0035800D02*
X0174800Y0042800D01*
X0156800Y0028800D02*
X0147800Y0037800D01*
X0156800Y0028800D02*
X0156800Y0026800D01*
X0151800Y0061800D02*
X0141800Y0061800D01*
X0121800Y0061800D02*
X0116800Y0066800D01*
X0116800Y0073800D01*
X0123800Y0080800D01*
X0136800Y0080800D01*
X0116800Y0066800D02*
X0111800Y0061800D01*
X0248800Y0074800D02*
X0261800Y0061800D01*
X0256800Y0042800D02*
X0259800Y0039800D01*
X0304800Y0039800D01*
X0306800Y0041800D01*
X0306800Y0046261D01*
X0306646Y0046414D01*
X0080737Y0130737D02*
X0080674Y0130800D01*
X0068800Y0130800D01*
X0042800Y0130800D02*
X0042737Y0130737D01*
X0030737Y0130737D01*
M02*
